<svg width="37" height="36" viewBox="0 0 37 36" fill="none" xmlns="http://www.w3.org/2000/svg">
<g clip-path="url(#clip0_6_299)" filter="url(#filter0_d_6_299)">
<path d="M8.8171 28H18.0586V18.0469H14.7383V14.7656H18.0586V10.6641C18.0586 8.40244 19.9205 6.5625 22.209 6.5625H26.3594V9.84375H23.0391C22.1236 9.84375 21.3789 10.5797 21.3789 11.4844V14.7656H26.2096L25.6562 18.0469H21.3789V28H28.8496C31.1382 28 33 26.1601 33 23.8984V4.10156C33 1.83994 31.1382 0 28.8496 0H8.8171C6.52855 0 4.66672 1.83994 4.66672 4.10156V23.8984C4.66672 26.1601 6.52855 28 8.8171 28ZM6.32687 4.10156C6.32687 2.74463 7.44402 1.64062 8.8171 1.64062H28.8496C30.2227 1.64062 31.3399 2.74463 31.3399 4.10156V23.8984C31.3399 25.2554 30.2227 26.3594 28.8496 26.3594H23.0391V19.6875H27.0626L28.1693 13.125H23.0391V11.4844H28.0195V4.92188H22.209C19.005 4.92188 16.3985 7.49774 16.3985 10.6641V13.125H13.0782V19.6875H16.3985V26.3594H8.8171C7.44402 26.3594 6.32687 25.2554 6.32687 23.8984V4.10156Z" fill="white"/>
</g>
<defs>
<filter id="filter0_d_6_299" x="0.666718" y="0" width="36.3333" height="36" filterUnits="userSpaceOnUse" color-interpolation-filters="sRGB">
<feFlood flood-opacity="0" result="BackgroundImageFix"/>
<feColorMatrix in="SourceAlpha" type="matrix" values="0 0 0 0 0 0 0 0 0 0 0 0 0 0 0 0 0 0 127 0" result="hardAlpha"/>
<feOffset dy="4"/>
<feGaussianBlur stdDeviation="2"/>
<feComposite in2="hardAlpha" operator="out"/>
<feColorMatrix type="matrix" values="0 0 0 0 0 0 0 0 0 0 0 0 0 0 0 0 0 0 0.25 0"/>
<feBlend mode="normal" in2="BackgroundImageFix" result="effect1_dropShadow_6_299"/>
<feBlend mode="normal" in="SourceGraphic" in2="effect1_dropShadow_6_299" result="shape"/>
</filter>
<clipPath id="clip0_6_299">
<rect width="28.3333" height="28" fill="white" transform="translate(4.66672)"/>
</clipPath>
</defs>
</svg>
